<?xml version="1.0" encoding="iso-8859-1"?>
<!-- Generator: Adobe Illustrator 23.0.1, SVG Export Plug-In . SVG Version: 6.00 Build 0)  -->
<svg version="1.1" id="Camada_1" xmlns="http://www.w3.org/2000/svg" xmlns:xlink="http://www.w3.org/1999/xlink" x="0px" y="0px"
	 viewBox="200 140 1366 768" style="enable-background:new 0 0 1366 768;" xml:space="preserve">
	 <defs>
    <style>
        #line{
            stroke-dasharray: 4000;
            stroke-dashoffset:100;
            animation: dash 4s linear forwards;
        }
        @keyframes dash{
            from{
                stroke-dashoffset:4000;
            }
            to{
                stroke-dashoffset:0;
            }
        }
    </style> 
</defs>
<g id="logo">
	<polygon style="fill:#3C3C3B;" points="-1637,-757.35 -1637,98.31 -1182.92,-462.76 	"/>
	<polygon style="fill:#3C3C3B;" points="-96.22,-1805.5 -1583.71,-806.85 -678.71,-1085.76 	"/>
	<polygon style="fill:#777776;" points="-701.94,-1057.07 -1623.38,-773.08 -1169.88,-478.87 	"/>
	<polygon style="fill:#777776;" points="796.63,564.02 -34.78,277.64 -34.78,703.05 	"/>
	<path style="fill:#777776;" d="M-845.2,185.76l759.97,63.67l-877.37-569.24l-656.41,440.73l773.63,64.82
		C-845.32,185.74-845.27,185.74-845.2,185.76z"/>
	<polygon style="fill:#525251;" points="-55.4,1138.46 -55.4,272.69 -822.53,208.41 	"/>
	<polygon style="fill:#3C3C3B;" points="-34.78,1147.62 793.42,585.41 -34.78,723.91 	"/>
	<polygon style="fill:#BCBCBB;" points="1459.19,120.58 831.92,-319.85 -6.49,249.39 	"/>
	<polygon style="fill:#BCBCBB;" points="1447.58,-791.39 4.7,-1804.64 726.04,-872.21 	"/>
	<polygon style="fill:#929191;" points="-1604.71,142.89 -95.65,1122.05 -851.22,206.02 	"/>
	<polygon style="fill:#929191;" points="836.74,556.01 1445.87,142.53 4.18,269.23 	"/>
	<polygon style="fill:#525251;" points="-1152.39,-467.53 -962.79,-344.52 -71.28,-943.11 -668.43,-1065.5 	"/>
	<polygon style="fill:#929191;" points="697.58,-875.4 -34.78,-1822.07 -34.78,-957.45 	"/>
	<polygon style="fill:#525251;" points="-1596.07,80.71 -981.41,-332.01 -1165.43,-451.4 	"/>
	<polygon style="fill:#929191;" points="832.13,-344.92 1457.57,-769.56 -6.19,-933.53 	"/>
	<polygon style="fill:#BCBCBB;" points="-55.4,-1823 -653.85,-1083.53 -55.4,-960.85 	"/>
</g>
<path id="line" style="fill:none;stroke:#F08252;stroke-width:2;" d="M-12.23,286H42.8l747.38,254.11L-31.94,708.27L-12.23,286z"/>
</svg>
