<?xml version="1.0" encoding="utf-8"?>
<!-- Generator: Adobe Illustrator 23.0.1, SVG Export Plug-In . SVG Version: 6.00 Build 0)  -->
<svg version="1.1" id="Camada_1" xmlns="http://www.w3.org/2000/svg" xmlns:xlink="http://www.w3.org/1999/xlink" x="0px" y="0px"
	 viewBox="115 70 438.3 422.4" style="enable-background:new 0 0 438.3 422.4;" xml:space="preserve">
<style type="text/css">
	 .st0{
	 animation: bgcolor 20s infinite;}
	@keyframes bgcolor {
    0% {
        fill:#E42916;
    }

    15% {
        fill:#EFC700;
    }

    30% {
       fill:#65378C;
    }

    45% {
        fill:#B9CD00;
    }

    60% {
       fill:#3878BD;
    }
	 75% {
       fill:#F08252;
    }
	 90% {
       fill:#F08252;
    }
	 100% {
       fill:#E42916;
    }
}
 
</style>
<path class="st0" d="M650.2,275.5c0.1-0.3,0.2-0.6,0.2-0.9c0-0.9-0.4-1.8-1.2-2.4l-86.4-61.8l86.3-59.7c0.1,0,0.1-0.1,0.1-0.1
	c0.1-0.1,0.2-0.1,0.2-0.2c0,0,0,0,0.1,0c0,0,0,0,0-0.1c0.2-0.2,0.4-0.5,0.5-0.7c0,0,0,0,0,0c0,0,0-0.1,0.1-0.1
	c0-0.1,0.1-0.2,0.1-0.3c0-0.1,0-0.2,0-0.2c0-0.1,0-0.1,0-0.2c0-0.1,0-0.1,0-0.2c0,0,0-0.1,0-0.1c0,0,0-0.1,0-0.1c0-0.1,0-0.2,0-0.3
	c0-0.1,0-0.2,0-0.2c0-0.1-0.1-0.2-0.1-0.4c0-0.1,0-0.1,0-0.2c0,0,0,0,0,0c-0.1-0.3-0.3-0.5-0.5-0.7c0,0,0,0,0-0.1c0,0-0.1,0-0.1-0.1
	c-0.1-0.1-0.2-0.2-0.3-0.2c0,0-0.1-0.1-0.1-0.1L439.5-4c0,0-0.1,0-0.1-0.1c0,0,0,0-0.1,0c-0.1,0-0.1-0.1-0.2-0.1
	c0,0-0.1-0.1-0.1-0.1c0,0-0.1,0-0.1-0.1c0,0-0.1,0-0.1-0.1c0,0-0.1,0-0.1,0c0,0-0.1,0-0.1,0c-0.1,0-0.1,0-0.2,0c-0.1,0-0.1,0-0.2,0
	c-0.1,0-0.1,0-0.2,0c-0.1,0-0.1,0-0.2,0c0,0,0,0-0.1,0c0,0,0,0,0,0c0,0,0,0,0,0c0,0-0.1,0-0.1,0c0,0-0.1,0-0.1,0c-0.1,0-0.1,0-0.2,0
	c0,0-0.1,0-0.1,0c0,0-0.1,0-0.1,0c0,0-0.1,0-0.1,0c-0.1,0-0.1,0-0.2,0.1c-0.1,0-0.1,0-0.2,0.1c0,0,0,0,0,0c0,0,0,0,0,0
	c0,0,0,0-0.1,0c-0.1,0-0.1,0.1-0.2,0.1c0,0-0.1,0.1-0.1,0.1c0,0,0,0,0,0L276,105.3c0-0.1-0.1-0.1-0.1-0.2c0,0.1,0,0.2,0,0.3
	L216.5,146c0,0-0.1,0.1-0.1,0.1c-0.1,0.1-0.2,0.1-0.3,0.2c0,0-0.1,0-0.1,0.1c0,0,0,0,0,0.1c-0.2,0.2-0.4,0.5-0.5,0.7c0,0,0,0,0,0
	c0,0,0,0.1,0,0.2c0,0.1-0.1,0.2-0.1,0.3c0,0.1,0,0.2-0.1,0.3c0,0.1,0,0.2,0,0.3c0,0,0,0.1,0,0.1c0,0,0,0.1,0,0.1c0,0.1,0,0.2,0,0.2
	c0,0,0,0,0,0.1l0,125.5c0,0.1,0,0.2,0,0.3c-0.1,1.4,0.8,2.7,2.2,3L436,422.1c0,0,0,0,0,0c0,0,0,0,0.1,0c0.1,0.1,0.2,0.1,0.3,0.2
	c0,0,0.1,0,0.1,0c0,0,0,0,0,0c0,0,0,0,0,0c0.1,0.1,0.2,0.1,0.4,0.1c0,0,0,0,0.1,0c0,0,0.1,0,0.1,0c0,0,0,0,0,0c0,0,0.1,0,0.1,0
	c0.2,0,0.3,0.1,0.5,0.1c0,0,0,0,0,0c0.1,0,0.1,0,0.2,0c0.1,0,0.2,0,0.4,0c0.1,0,0.1,0,0.2-0.1c0,0,0,0,0,0c0,0,0.1,0,0.1,0
	c0.1,0,0.1,0,0.2-0.1c0,0,0,0,0.1,0c0.1,0,0.2-0.1,0.2-0.1c0.1,0,0.1-0.1,0.2-0.1c0,0,0,0,0,0l152.6-105.5c0.1,0.1,0.1,0.3,0.2,0.4
	c0-0.2,0-0.4,0-0.6l56.3-38.9C649.3,277.2,650,276.4,650.2,275.5z M506.9,368c-0.1,0.1-0.2,0.2-0.3,0.3l0.2,0.1l-60.9,42.1
	c-0.5-0.2-0.9-0.3-1.5-0.5c0.1,0.6,0.1,0.9,0.2,1.3l-4.2,2.9v-55.2l5.8-1c0.3,0.7,0.9,0.7,1.7,0.3c-0.4-0.1-0.8-0.3-1.1-0.4l99.6-17
	l-39.3,27.2C507,368.2,507,368.1,506.9,368z M367.7,370.1l-1.3-0.8c0,0,0,0,0,0c0,0-0.1,0-0.1,0l-90.2-59.6c0.4-0.4,0.4-1,0.1-1.7
	c-0.2,0.5-0.3,1-0.5,1.4l-46.3-30.6l77.4,6.6c0,0.2,0,0.4,0,0.7c0.1-0.3,0.2-0.5,0.2-0.7l19.4,1.7l32.3,39.9
	c-0.3,0.3-0.7,0.7-1.1,1.1c1,0,1.3,0,1.5-0.6l64.7,79.9l-55.3-36.5C368.2,370.3,367.9,370.1,367.7,370.1z M361.1,54.1
	c0-0.1,0.1-0.1,0.1-0.2l61.6-42.1c0.1,0,0.2,0.1,0.3,0.1l-3.2,4c-0.1-0.1-0.2-0.2-0.4-0.3c-0.1,0.4-0.1,0.7-0.1,0.9l-0.4,0.5
	c0-0.1-0.1-0.2-0.1-0.3c-0.1,0-0.2,0-0.3,0c0,0.3,0,0.5,0,0.8l-37,46.5v-0.8c-0.1,0-0.3,0-0.4,0c0,0.4,0.1,0.8,0.1,1.2l-28,35.2
	c-0.1-0.2-0.3-0.3-0.4-0.4c-0.2-0.1-0.6,0-1.3,0.1c0.6,0.3,1,0.5,1.4,0.7l-3.1,4l-34.4,10.8c-0.1,0-0.1-0.1-0.2-0.1
	c-0.1,0-0.2,0.1-0.3,0.2l-79.6,25L361.1,54.1C361.1,54.1,361.1,54.1,361.1,54.1z M592.2,112.3c-0.7,0.3-0.7,1.1-0.4,1.9
	c0.2-0.6,0.4-1.2,0.6-1.8l44.4,31.8l-16.4-1.9c0-0.1,0.1-0.3,0.1-0.5h-1.4c0.1,0.1,0.1,0.2,0.2,0.3l-75.3-8.6L451.3,11.5
	L592.2,112.3z M494.5,128L494.5,128c0,0-0.1,0-0.1,0l-20.6-2.3c0,0,0,0,0,0c-0.1-0.1-0.2-0.3-0.3-0.4c-0.1,0.1-0.3,0.2-0.4,0.3
	l-32.6-3.7v-32c0.1,0.2,0.2,0.4,0.2,0.5c0.1-0.1,0.3-0.2,0.4-0.3c-0.2-0.2-0.3-0.4-0.5-0.5v-0.4c-0.1,0-0.1,0-0.2,0V6.7l23.6,31.1
	c-0.3,0.5-0.4,0.9,0.3,1.5c0-0.4,0.1-0.7,0.1-1l71.8,94.5L494.5,128z M552.9,210.4l-112.1,77.6c0,0-0.1,0-0.1-0.1
	c0,0.1-0.1,0.1-0.1,0.2c0,0,0,0,0,0l-2.9,2L317,210.4l30.4-20.8c0.3,0.2,0.5,0.3,0.8,0.5c0.1-0.4,0.1-0.7,0.2-1.1l89.2-61l5.5,3.9
	c0,0.1,0,0.2-0.1,0.2c0.2,0,0.4,0.1,0.5,0.1l0,0L552.9,210.4z M558.3,214.2v65.6l-8.7,0.8V261c0.1,0,0.1,0,0.2,0
	c0-0.1,0.1-0.1,0.1-0.2c0,0-0.1-0.1-0.1-0.2c-0.1,0.1-0.1,0.2-0.2,0.3v-41.3l8.3-5.7L558.3,214.2z M568.8,222.8
	c0-0.3,0.1-0.6,0.1-0.9l3,2.1c0,0.1,0,0.3,0,0.4v54.2l-7.9,0.7v-56.6c0.4,0,0.7-0.1,1.1-0.1c0-0.2,0-0.3-0.1-0.5
	c-0.3,0.1-0.7,0.1-1,0.2v-4l4.8,3.4c-0.3,0.2-0.5,0.3-0.7,0.5C568.3,222.4,568.5,222.6,568.8,222.8z M599.7,244.4v-0.5l1.9,1.3v29.7
	c0,0.4,0.1,0.7,0.2,1.1l-9.9,0.9v-38.6l7.6,5.5v0.7L599.7,244.4z M617.7,274.6l-10.5,0.9c0-0.2,0.1-0.4,0.1-0.6v-4.1
	c0.1,0,0.2,0,0.3,0c0-0.3-0.1-0.7-0.1-1c-0.1,0-0.1,0-0.2,0v-20.5l10.5,7.5V274.6z M623.4,260.8l16.5,11.8l-16.5,1.5V260.8z
	 M586.3,251C586.2,251,586.2,251,586.3,251l-0.1,0.2h0.1v26.2l-8.7,0.8v-29.8c0,0,0.1,0,0.1-0.1c0-0.1-0.1-0.1-0.1-0.2V228l8.7,6.3
	V251z M534.2,282v-51.8l9.7-6.7v57.6L534.2,282z M520.4,283.3v-43.5l8.1-5.6v12.3c0,0-0.1,0-0.1,0c0,0.1,0,0.2,0.1,0.3v35.7
	L520.4,283.3z M506,284.5v-12.7c0.1,0.1,0.2,0.2,0.3,0.3l0.3-0.3c-0.2-0.2-0.5-0.4-0.7-0.7v-20.7c0-0.2,0-0.5-0.1-0.7l8.8-6.1v40.1
	L506,284.5z M490.7,285.9v-25.6l9.7-6.7v17.5c-1.2,0.4-1.1,0.5-0.5,1.5c0.2-0.3,0.3-0.6,0.5-0.9v13.4L490.7,285.9z M474.6,287.4
	v-15.9l10.5-7.3v22.2L474.6,287.4z M448.2,289.7l20.7-14.3v12.5L448.2,289.7z M460.2,304.5c0,0.1,0.1,0.1,0.1,0.2
	C460.3,304.6,460.3,304.6,460.2,304.5L547,335c0,0,0,0.1,0,0.1l-7,1.2c0-0.2,0.1-0.3,0.1-0.5c-0.2,0-0.4,0-0.5-0.1v0.7l-4.3,0.7
	c0,0,0-0.1-0.1-0.1c-0.2-0.1-0.4-0.2-0.8-0.3c-0.1,0.2-0.2,0.4-0.3,0.6l-93.7,16v-55.7L460.2,304.5z M334.3,287.6l2.5,0.2
	c0,0.2,0,0.4,0,0.7c0.1,0,0.2,0,0.3,0c0-0.2,0-0.4,0-0.6l46,3.9c-0.1,0.3-0.1,0.6-0.1,1c0.4-0.3,0.8-0.6,1.1-0.9l50.7,4.3v11.6
	c0,0,0,0-0.1,0.1c0,0.1,0,0.1,0.1,0.2v19.4l0,0l0,0.1v3.9c-0.1,0-0.3-0.1-0.4-0.1c0,0.1,0,0.2-0.1,0.4c0.2,0,0.3,0.1,0.5,0.1v80
	L334.3,287.6z M226.1,272.6l15.3-10.5c0,0.1-0.1,0.1-0.1,0.2c0.1,0.1,0.2,0.1,0.3,0.2c0.2-0.3,0.4-0.6,0.5-0.9c0,0,0,0,0,0l10.9-7.4
	c0.1,0,0.1,0,0.2,0.1c0-0.1,0.1-0.2,0.1-0.2l47.9-32.8c0,0.2,0,0.4-0.1,0.6c0.4-0.4,0.6-0.7,0.6-1l10.2-7l11,7.3
	c0.1,0.2,0.3,0.4,0.6,0.7c0-0.1,0-0.2,0-0.4l7.6,5c0,0,0,0-0.1,0c0.4,0.3,0.7,0.5,0.9,0.5l20.7,13.7v0.4h0.2v-0.3l2.6,1.7
	c-0.2,0.4-0.3,0.8-0.5,1.2c0.3,0.1,0.5,0.2,0.8,0.2c0.1-0.4,0.2-0.7,0.2-1.1l9.1,6c0.4,0.5,0.9,1,1.3,1.6c0-0.3,0-0.5-0.1-0.8
	l5.9,3.9c-0.2,0.1-0.5,0.2-0.7,0.3c0,0.1,0.1,0.3,0.1,0.4c0.3-0.1,0.5-0.2,0.8-0.3c0-0.1-0.1-0.2-0.1-0.3l28.5,18.8
	c0,0.1,0,0.3,0.1,0.4c0.1,0,0.3,0,0.4-0.1c0,0,0,0,0,0l25.6,16.9l-52.8-4.5c-0.2-0.2-0.3-0.4-0.5-0.6c-0.1,0.2-0.2,0.3-0.4,0.5
	l-44.7-3.8c-0.1,0-0.3,0-0.4,0L226.1,272.6z M254.6,139.9c-0.2,0.2-0.3,0.5-0.5,0.7c0.1,0.1,0.2,0.1,0.3,0.2
	c0.3-0.3,0.5-0.6,0.8-0.9c-0.1-0.1-0.1-0.1-0.2-0.2l33.5-10.5c0.1,0.1,0.2,0.2,0.2,0.3c0.2-0.2,0.4-0.4,0.6-0.6l19.9-6.3
	c0.7,0.4,1.5,0.7,2.4,0.7c-0.4-0.5-0.7-0.8-0.9-1.1l32.9-10.3l-60.4,76l-14.7-9.7v-0.6l-0.2,0v0.5l-43.7-28.8L254.6,139.9z
	 M361.4,98.8C361.4,98.8,361.4,98.8,361.4,98.8c0,0,0.2-0.1,0.2-0.2c0,0,0,0,0,0l55.8-70.3c0.1,0.3,0.2,0.7,0.3,1
	c0.2,0,0.3-0.1,0.5-0.1c0-0.4-0.1-0.7-0.1-1.1l-0.6,0.1l5.1-6.4c0,0,0,0.1,0,0.1c0.1-0.1,0.1-0.2,0.2-0.3c0,0,0,0,0,0l4.3-5.5
	c0.1,0,0.1,0,0.2,0.1c0-0.1,0-0.2,0-0.2l7.7-9.7v78c-0.1,0-0.1,0-0.2,0c0,0,0,0.1,0,0.1c0.1,0,0.1,0,0.2,0V112c-0.1,0-0.1,0-0.2-0.1
	c0,0.2-0.1,0.4-0.1,0.6c0.1,0,0.2,0.1,0.3,0.1v7.5c-0.1,0.1-0.3,0.2-0.4,0.4c0.2,0,0.3,0.1,0.4,0.1v0.2l-78.1-16.3L361.4,98.8z
	 M416.9,135.2c-0.1-0.1-0.3-0.2-0.5-0.3l-7.9-4.8c0.1-0.1,0.1-0.2,0.2-0.4c-0.1-0.1-0.2-0.2-0.3-0.3c-0.1,0.1-0.3,0.2-0.5,0.3
	l-21.9-13.1l44.4,9.3L416.9,135.2z M404.9,142.9c-0.2,0.3-0.5,0.6-0.7,1l-3.3,2.3l-41.9-26c0-0.2,0-0.4,0-0.6
	c-0.1,0-0.2-0.1-0.3-0.1c-0.1,0.1-0.1,0.3-0.2,0.4l-9.3-5.8l3.5-4.4l16.3,3.4l42.7,25.6l-6.5,4.4c0,0,0,0,0,0
	C405.2,143,405,142.9,404.9,142.9z M387.7,155.1l-15.6-9.3c-0.1-0.6-0.3-1.2-1.1-1.6c0.2,0.4,0.3,0.8,0.5,1.2l-31.9-19.2l6.1-7.7
	l23.7,14.7c0,0,0,0,0,0c0.2,0.2,0.4,0.4,0.5,0.6c0.1-0.1,0.1-0.1,0.2-0.2l25.7,15.9L387.7,155.1z M371.8,166L328.6,140l7.3-9.3
	l31.9,19.2c-0.2,0.3-0.3,0.6-0.6,1.2c0.9-0.3,1.3-0.5,1.3-0.8l13.9,8.4L371.8,166z M342.6,186l-12.9-7.7c0.1-0.1,0.2-0.1,0.3-0.2
	c-0.1-0.1-0.1-0.2-0.2-0.3c-0.1,0.1-0.3,0.2-0.4,0.3l-21-12.6l7.4-9.4l37.5,22.5L342.6,186z M328.3,195.7l-29.8-17.9l6.3-7.9
	l19.4,11.7c0,0,0,0,0,0c0,0,0,0,0.1,0l13.1,7.8L328.3,195.7z M232,261.6l52.3-65.9l22.4,14.8L232,261.6z M302.7,200.9
	c0.1,0,0.1,0,0.2,0C302.8,200.9,302.7,200.9,302.7,200.9l-14.7-9.7l7-8.8l28.2,16.9l-11.3,7.7L302.7,200.9z M358.6,175l-39.1-23.5
	l5.6-7l41.6,25L358.6,175z M220.9,153.7l58.7,38.8l-58.7,73.9L220.9,153.7z M423.5,11.5C423.5,11.4,423.5,11.4,423.5,11.5l0.2-0.2
	L423.5,11.5z M558.3,332.8l-63.8-22.4c-0.1-0.3-0.2-0.5-0.4-0.8c-0.2,0.1-0.3,0.2-0.5,0.4c0,0,0,0.1,0.1,0.1l-9.6-3.4
	c0.2-0.5,0.5-1,0.7-1.5c-0.2-0.1-0.4-0.2-0.5-0.3c-0.2,0.5-0.5,1.1-0.7,1.6l-32.5-11.4l7.5-0.7c0.1,0.1,0.1,0.1,0.2,0.2l0.2-0.2
	l100.7-9c0.4,0.2,0.9,0.4,1.4,0.4c0.7,0,1.3-0.3,1.8-0.7l67.5-6c-0.1,0.1-0.2,0.2-0.3,0.3c0.7,0.7,1.3,0.6,2.2,0
	c-0.2-0.1-0.4-0.3-0.6-0.4l5-0.4L558.3,332.8z M448.3,128.6l83.9,9.6c0,0.2-0.1,0.3-0.1,0.5c0.1-0.2,0.3-0.3,0.4-0.5l12,1.4
	c0,0.1,0,0.2,0,0.3c0.1,0,0.1,0,0.2,0c0-0.1,0-0.2,0-0.3l95,10.8l-61.3,42.4c0-0.1,0-0.1,0-0.2c-0.3,0-0.5,0-0.8,0.1
	c0,0.1,0,0.2,0,0.3h0.5l-11.1,7.7c0-0.2,0-0.3,0.1-0.5c-0.4,0.4-0.6,0.6-0.6,0.9l-8.4,5.8L448.3,128.6z"/>
</svg>
