<?xml version="1.0" encoding="iso-8859-1"?>
<!-- Generator: Adobe Illustrator 23.0.1, SVG Export Plug-In . SVG Version: 6.00 Build 0)  -->
<svg version="1.1" id="Camada_1" xmlns="http://www.w3.org/2000/svg" xmlns:xlink="http://www.w3.org/1999/xlink" x="0px" y="0px"
	 viewBox="220 0 1366 768" style="enable-background:new 0 0 1366 768;" xml:space="preserve">
<defs>
    <style>
        #line{
            stroke-dasharray: 4000;
            stroke-dashoffset:100;
            animation: dash 4s linear forwards;
        }
        @keyframes dash{
            from{
                stroke-dashoffset:4000;
            }
            to{
                stroke-dashoffset:0;
            }
        }
    </style> 
</defs>
<g id="logo">
	<polygon style="fill:#3C3C3B;" points="-597,-346.35 -597,509.31 -142.92,-51.76 	"/>
	<polygon style="fill:#3C3C3B;" points="943.78,-1394.5 -543.71,-395.85 361.29,-674.76 	"/>
	<polygon style="fill:#777776;" points="338.06,-646.07 -583.38,-362.08 -129.88,-67.87 	"/>
	<polygon style="fill:#777776;" points="1836.63,975.02 1005.22,688.64 1005.22,1114.05 	"/>
	<path style="fill:#777776;" d="M194.8,596.76l759.97,63.67L77.39,91.19l-656.41,440.73l773.63,64.82
		C194.68,596.74,194.73,596.74,194.8,596.76z"/>
	<polygon style="fill:#525251;" points="984.6,1549.46 984.6,683.69 217.47,619.41 	"/>
	<polygon style="fill:#3C3C3B;" points="1005.22,1558.62 1833.42,996.41 1005.22,1134.91 	"/>
	<polygon style="fill:#BCBCBB;" points="2499.19,531.58 1871.92,91.15 1033.51,660.39 	"/>
	<polygon style="fill:#BCBCBB;" points="2487.58,-380.39 1044.7,-1393.64 1766.04,-461.21 	"/>
	<polygon style="fill:#929191;" points="-564.71,553.89 944.35,1533.05 188.78,617.02 	"/>
	<polygon style="fill:#929191;" points="1876.74,967.01 2485.87,553.53 1044.18,680.23 	"/>
	<polygon style="fill:#525251;" points="-112.39,-56.53 77.21,66.48 968.72,-532.11 371.57,-654.5 	"/>
	<polygon style="fill:#929191;" points="1737.58,-464.4 1005.22,-1411.07 1005.22,-546.45 	"/>
	<polygon style="fill:#525251;" points="-556.07,491.71 58.59,78.99 -125.43,-40.4 	"/>
	<polygon style="fill:#929191;" points="1872.13,66.08 2497.57,-358.56 1033.81,-522.53 	"/>
	<polygon style="fill:#BCBCBB;" points="984.6,-1412 386.15,-672.53 984.6,-549.85 	"/>
</g>
<path id="line" style="fill:none;stroke:#B9CD00;stroke-width:2;" d="M-12.73,155.61l92.87-70.16l863.79,580.23L-26.69,558.7
	L-12.73,155.61z"/>
</svg>
