<?xml version="1.0" encoding="iso-8859-1"?>
<!-- Generator: Adobe Illustrator 23.0.1, SVG Export Plug-In . SVG Version: 6.00 Build 0)  -->
<svg version="1.1" id="Camada_1" xmlns="http://www.w3.org/2000/svg" xmlns:xlink="http://www.w3.org/1999/xlink" x="0px" y="0px"
	 viewBox="500 0 1366 768" style="enable-background:new 0 0 1366 768;" xml:space="preserve">
<defs>
    <style>
        #line{
            stroke-dasharray: 4000;
            stroke-dashoffset:100;
            animation: dash 4s linear forwards;
        }
        @keyframes dash{
            from{
                stroke-dashoffset:4000;
            }
            to{
                stroke-dashoffset:0;
            }
        }
    </style> 
</defs>
<g id="logo">
	<polygon style="fill:#3C3C3B;" points="-1766,625.65 -1766,1481.31 -1311.92,920.24 	"/>
	<polygon style="fill:#3C3C3B;" points="-225.22,-422.5 -1712.71,576.15 -807.71,297.24 	"/>
	<polygon style="fill:#777776;" points="-830.94,325.93 -1752.38,609.92 -1298.88,904.13 	"/>
	<polygon style="fill:#777776;" points="667.63,1947.02 -163.78,1660.64 -163.78,2086.05 	"/>
	<path style="fill:#777776;" d="M-974.2,1568.76l759.97,63.67l-877.37-569.24l-656.41,440.73l773.63,64.82
		C-974.32,1568.74-974.27,1568.74-974.2,1568.76z"/>
	<polygon style="fill:#525251;" points="-184.4,2521.46 -184.4,1655.69 -951.53,1591.41 	"/>
	<polygon style="fill:#3C3C3B;" points="-163.78,2530.62 664.42,1968.41 -163.78,2106.91 	"/>
	<polygon style="fill:#BCBCBB;" points="1330.19,1503.58 702.92,1063.15 -135.49,1632.39 	"/>
	<polygon style="fill:#BCBCBB;" points="1318.58,591.61 -124.3,-421.64 597.04,510.79 	"/>
	<polygon style="fill:#929191;" points="-1733.71,1525.89 -224.65,2505.05 -980.22,1589.02 	"/>
	<polygon style="fill:#929191;" points="707.74,1939.01 1316.87,1525.53 -124.82,1652.23 	"/>
	<polygon style="fill:#525251;" points="-1281.39,915.47 -1091.79,1038.48 -200.28,439.89 -797.43,317.5 	"/>
	<polygon style="fill:#929191;" points="568.58,507.6 -163.78,-439.07 -163.78,425.55 	"/>
	<polygon style="fill:#525251;" points="-1725.07,1463.71 -1110.41,1050.99 -1294.43,931.6 	"/>
	<polygon style="fill:#929191;" points="703.13,1038.08 1328.57,613.44 -135.19,449.47 	"/>
	<polygon style="fill:#BCBCBB;" points="-184.4,-440 -782.85,299.47 -184.4,422.15 	"/>
</g>
<polygon id="line" style="fill:none;stroke:#3878BD;stroke-width:2;" points="1343.27,573.05 -124.99,-403.07 619.9,510.65 "/>
</svg>
