<?xml version="1.0" encoding="utf-8"?>
<!-- Generator: Adobe Illustrator 23.0.1, SVG Export Plug-In . SVG Version: 6.00 Build 0)  -->
<svg version="1.1" id="Camada_1" xmlns="http://www.w3.org/2000/svg" xmlns:xlink="http://www.w3.org/1999/xlink" x="0px" y="0px"
	 viewBox="0 0 94.8 91.1" style="enable-background:new 0 0 94.8 91.1;" xml:space="preserve">
<style type="text/css">
	.st0{fill:#3E3E3D;}
	.st1{fill:#767675;}
	.st2{fill:#535252;}
	.st3{fill:#BBBBBB;}
	.st4{fill:#919190;}
</style>
<g transform="translate(0 0.15)">
	<path class="st0" d="M0,32.6v26.2l13.9-17.2L0,32.6z"/>
	<path class="st0" d="M47.2,0.5L1.6,31.1l27.7-8.5L47.2,0.5z"/>
	<path class="st1" d="M28.6,23.4L0.4,32.1l13.9,9L28.6,23.4z"/>
	<path class="st1" d="M74.5,73.1L49,64.3v13L74.5,73.1z"/>
	<path class="st1" d="M24.2,61.5l23.3,2L20.6,46L0.5,59.5L24.2,61.5L24.2,61.5z"/>
	<path class="st2" d="M48.4,90.7V64.2l-23.5-2L48.4,90.7z"/>
	<path class="st0" d="M49,90.9l25.4-17.2L49,78V90.9z"/>
	<path class="st3" d="M94.8,59.5L75.6,46L49.9,63.4L94.8,59.5z"/>
	<path class="st3" d="M94.4,31.6l-44.2-31l22.1,28.5L94.4,31.6z"/>
	<path class="st4" d="M1,60.2l46.2,30l-23.1-28L1,60.2z"/>
	<path class="st4" d="M75.7,72.8l18.6-12.7L50.2,64L75.7,72.8z"/>
	<path class="st2" d="M14.8,41.5l5.8,3.8l27.3-18.3l-18.3-3.7L14.8,41.5z"/>
	<path class="st4" d="M71.5,29L49,0v26.5L71.5,29z"/>
	<path class="st2" d="M1.3,58.3l18.8-12.6L14.4,42L1.3,58.3z"/>
	<path class="st4" d="M75.6,45.2l19.1-13l-44.8-5L75.6,45.2z"/>
	<path class="st3" d="M48.4,0L30.1,22.6l18.3,3.8L48.4,0z"/>
</g>
</svg>
